<?xml version="1.0" encoding="UTF-8" standalone="no"?>
<svg
   xmlns="http://www.w3.org/2000/svg"
   xmlns:xlink="http://www.w3.org/1999/xlink"
   height="118.33249pt"
   version="1.1"
   viewBox="0 0 217.7318 118.33249"
   width="217.7318pt">
  <defs
     id="defs45519">
    <style
       type="text/css"
       id="style45517">*{stroke-linecap:butt;stroke-linejoin:round;}</style>
    <defs
       id="defs46330">
      <path
         d="M 61.8125,0 H 53.609375 V 31.9375 H 17.390625 V 0 H 9.1875 v 70.015625 h 8.203125 V 39.3125 h 36.21875 V 70.015625 H 61.8125 Z"
         id="SegoeUI-72" />
      <path
         d="m 70.5625,-1.125 q -2.78125,0 -4.90625,0.765625 -2.125,0.75 -3.9375,2.140625 -1.8125,1.390625 -3.5,3.390625 -1.671875,2 -3.53125,4.546875 Q 52.734375,7.625 50.171875,5.671875 47.609375,3.71875 44.484375,2.203125 41.359375,0.6875 37.640625,-0.21875 33.9375,-1.125 29.59375,-1.125 q -5.28125,0 -9.671875,1.3125 -4.390625,1.328125 -7.515625,3.890625 -3.125,2.5625 -4.859375,6.3125 -1.734375,3.765625 -1.734375,8.65625 0,7.46875 4.25,12.765625 4.25,5.296875 12.015625,8.671875 -1.46875,1.0625 -2.9375,2.5 -1.46875,1.453125 -2.625,3.28125 -1.140625,1.828125 -1.84375,4.046875 -0.703125,2.234375 -0.703125,4.859375 0,3.859375 1.390625,6.828125 1.390625,2.984375 3.828125,5.03125 2.4375,2.0625 5.75,3.109375 3.328125,1.046875 7.1875,1.046875 3.8125,0 6.953125,-1.046875 3.15625,-1.046875 5.421875,-3 2.28125,-1.953125 3.546875,-4.6875 1.265625,-2.734375 1.265625,-6.109375 0,-5.859375 -3.34375,-9.75 -3.34375,-3.875 -10.03125,-6.609375 3.375,-1.3125 6.109375,-3.21875 2.734375,-1.90625 5.046875,-4.25 2.328125,-2.34375 4.328125,-5.03125 2,-2.671875 3.953125,-5.5625 3.953125,5.515625 5.953125,12.15625 2,6.640625 2,13.921875 0,1.859375 -0.21875,3.484375 -0.21875,1.640625 -0.609375,3.25 h 7.765625 Q 70.65625,53.125 70.71875,51.6875 70.79688,50.25 70.90625,48.25 q 0,-4.453125 -0.9375,-8.953125 Q 69.046875,34.8125 67.484375,30.59375 65.921875,26.375 63.84375,22.5625 61.765625,18.75 59.46875,15.578125 61.1875,13.234375 62.59375,11.5 q 1.421875,-1.734375 2.859375,-2.90625 1.4375,-1.171875 2.96875,-1.734375 1.546875,-0.5625 3.5,-0.5625 1.46875,0 2.984375,0.390625 1.515625,0.390625 3.125,0.984375 V 0.25 Q 76.265625,-0.4375 74.328125,-0.78125 72.40625,-1.125 70.5625,-1.125 Z M 29.59375,5.8125 q 3.703125,0 6.828125,0.796875 3.125,0.8125 5.765625,2.15625 2.640625,1.34375 4.78125,3.125 Q 49.125,13.671875 50.875,15.625 47.90625,20.265625 45.390625,23.5625 42.875,26.859375 40.3125,29.25 37.75,31.640625 34.84375,33.34375 31.9375,35.0625 28.125,36.53125 25.046875,35.296875 22.453125,33.8125 19.875,32.328125 17.984375,30.296875 q -1.875,-2.03125 -2.953125,-4.71875 -1.0625,-2.671875 -1.0625,-6.296875 0,-3.3125 1.21875,-5.859375 1.21875,-2.53125 3.34375,-4.21875 2.125,-1.6875 4.953125,-2.546875 Q 26.3125,5.8125 29.59375,5.8125 Z m 12.203125,49.859375 q 0,2.4375 -0.90625,4.140625 -0.90625,1.71875 -2.296875,2.828125 -1.390625,1.125 -3.09375,1.640625 -1.703125,0.515625 -3.375,0.515625 -4.78125,0 -7.640625,-2.59375 -2.859375,-2.578125 -2.90625,-7.03125 0,-2 0.609375,-3.765625 0.609375,-1.75 1.703125,-3.265625 Q 25,46.625 26.46875,45.453125 q 1.46875,-1.171875 3.125,-2 6.15625,2.15625 9.171875,5 3.03125,2.859375 3.03125,7.21875 z"
         id="SegoeUI-38" />
      <path
         d="M 16.3125,7.234375 H 16.109375 V -23 h -8 v 73 h 8 V 41.21875 H 16.3125 q 5.90625,9.953125 17.28125,9.953125 9.671875,0 15.09375,-6.71875 Q 54.109375,37.75 54.109375,26.46875 54.109375,13.921875 48,6.375 41.890625,-1.171875 31.296875,-1.171875 q -9.71875,0 -14.984375,8.40625 z m -0.203125,20.15625 V 20.40625 q 0,-6.203125 4.03125,-10.53125 4.03125,-4.3125 10.234375,-4.3125 7.265625,0 11.390625,5.5625 4.140625,5.578125 4.140625,15.484375 0,8.359375 -3.859375,13.09375 Q 38.1875,44.4375 31.59375,44.4375 q -6.984375,0 -11.234375,-4.859375 -4.25,-4.859375 -4.25,-12.1875 z"
         id="SegoeUI-112" />
      <path
         d="m 37.40625,-1.171875 q -14.890625,0 -23.859375,9.8125 -8.953125,9.8125 -8.953125,25.546875 0,16.890625 9.125,26.9375 9.140625,10.0625 24.859375,10.0625 14.5,0 23.359375,-9.765625 8.859375,-9.765625 8.859375,-25.53125 0,-17.140625 -9.078125,-27.109375 -9.078125,-9.953125 -24.3125,-9.953125 z m 0.578125,64.9375 q -11.03125,0 -17.921875,-7.953125 -6.875,-7.953125 -6.875,-20.90625 0,-12.9375 6.703125,-20.828125 6.71875,-7.875 17.515625,-7.875 11.515625,0 18.15625,7.515625 6.640625,7.515625 6.640625,21.046875 0,13.875 -6.453125,21.4375 -6.4375,7.5625 -17.765625,7.5625 z"
         id="SegoeUI-79" />
      <path
         d="M 47.40625,50 27.484375,0 H 19.625 L 0.6875,50 H 9.46875 L 22.171875,13.671875 q 1.40625,-4 1.75,-6.984375 H 24.125 q 0.484375,3.765625 1.5625,6.796875 L 38.96875,50 Z"
         id="SegoeUI-118" />
      <path
         d="M 29.109375,-15.921875 H 21.96875 q -15.125,17.296875 -15.125,42.625 0,25.453125 15.125,43.3125 h 7.234375 Q 13.875,51.46875 13.875,26.8125 q 0,-24.46875 15.234375,-42.734375 z"
         id="SegoeUI-40" />
      <path
         d="M 15.046875,70.015625 V 48.1875 h -7.09375 v 21.828125 z m 16.203125,0 V 48.1875 h -7.078125 v 21.828125 z"
         id="SegoeUI-34" />
      <path
         d="m 47.90625,50 -23,-58.015625 Q 18.75,-23.53125 7.625,-23.53125 q -3.125,0 -5.234375,0.625 v 7.1875 q 2.59375,-0.890625 4.734375,-0.890625 6.0625,0 9.09375,7.234375 l 4,9.46875 L 0.6875,50 H 9.578125 L 23.09375,11.53125 q 0.25,-0.734375 1.03125,-3.8125 h 0.296875 q 0.234375,1.171875 0.96875,3.703125 L 39.59375,50 Z"
         id="SegoeUI-121" />
      <path
         d="m 8.296875,-15.921875 h -7.125 Q 16.40625,2.34375 16.40625,26.8125 q 0,24.65625 -15.328125,43.203125 h 7.21875 Q 23.53125,52.15625 23.53125,26.703125 q 0,-25.328125 -15.234375,-42.625 z"
         id="SegoeUI-41" />
    </defs>
  </defs>
  <rect
     style="fill:#f0f0f0;fill-opacity:1"
     id="rect51312"
     width="217.7318"
     height="118.33249"
     x="0"
     y="0" />
  <g
     id="text_12">
    <!-- −10.0% -->
    <g
       transform="matrix(0.1,0,0,-0.1,0,110.90006)"
       id="g45954">
      <defs
         id="defs45940">
        <path
           d="m 57.234375,25.875 h -45.90625 v 6.546875 h 45.90625 z"
           id="SegoeUI-8722" />
        <path
           d="M 35.359375,0 H 27.34375 V 60.5 Q 26.421875,59.578125 24.640625,58.375 22.859375,57.171875 20.625,56 18.40625,54.828125 15.9375,53.796875 13.484375,52.78125 11.140625,52.203125 v 8.09375 q 2.625,0.734375 5.578125,1.984375 2.953125,1.25 5.8125,2.78125 2.859375,1.546875 5.390625,3.21875 2.546875,1.6875 4.40625,3.296875 h 3.03125 z"
           id="SegoeUI-49" />
        <path
           d="m 49.8125,35.296875 q 0,-8.78125 -1.59375,-15.578125 Q 46.625,12.9375 43.625,8.265625 q -3,-4.65625 -7.375,-7.078125 -4.359375,-2.40625 -9.9375,-2.40625 -5.265625,0 -9.390625,2.3125 -4.125,2.328125 -6.96875,6.765625 Q 7.125,12.3125 5.65625,18.78125 4.203125,25.25 4.203125,33.59375 q 0,9.1875 1.53125,16.21875 1.546875,7.03125 4.515625,11.78125 2.984375,4.765625 7.40625,7.171875 4.421875,2.421875 10.125,2.421875 22.03125,0 22.03125,-35.890625 z m -8.203125,-0.78125 q 0,29.890625 -14.21875,29.890625 -14.984375,0 -14.984375,-30.421875 0,-28.375 14.6875,-28.375 14.515625,0 14.515625,28.90625 z"
           id="SegoeUI-48" />
        <path
           d="m 10.890625,-1.078125 q -2.25,0 -3.84375,1.609375 -1.578125,1.625 -1.578125,3.859375 0,2.25 1.578125,3.875 1.59375,1.640625 3.84375,1.640625 2.296875,0 3.90625,-1.640625 1.609375,-1.625 1.609375,-3.875 0,-2.234375 -1.609375,-3.859375 -1.609375,-1.609375 -3.90625,-1.609375 z"
           id="SegoeUI-46" />
        <path
           d="m 19.734375,34.90625 q -7.234375,0 -11.53125,4.765625 -4.296875,4.765625 -4.296875,12.71875 0,8.6875 4.53125,13.6875 4.546875,5.015625 12.265625,5.015625 7.46875,0 11.59375,-4.640625 4.125,-4.640625 4.125,-13.03125 0,-8.40625 -4.609375,-13.46875 Q 27.203125,34.90625 19.734375,34.90625 Z m 0.671875,30.8125 q -4.640625,0 -7.328125,-3.4375 -2.671875,-3.4375 -2.671875,-9.453125 0,-5.90625 2.625,-9.203125 2.640625,-3.296875 7.1875,-3.296875 4.59375,0 7.171875,3.421875 2.59375,3.421875 2.59375,9.46875 0,5.90625 -2.5625,9.203125 -2.5625,3.296875 -7.015625,3.296875 z m 46.203125,4.296875 -44.921875,-70.5 h -6.984375 l 44.875,70.5 z m -5.1875,-71.09375 q -7.21875,0 -11.515625,4.78125 Q 45.609375,8.5 45.609375,16.40625 q 0,8.6875 4.578125,13.734375 4.59375,5.0625 12.21875,5.0625 7.421875,0 11.5625,-4.6875 4.15625,-4.6875 4.15625,-13.125 Q 78.125,9.03125 73.5,3.96875 68.890625,-1.078125 61.421875,-1.078125 Z m 0.6875,30.765625 q -4.6875,0 -7.359375,-3.421875 -2.65625,-3.40625 -2.65625,-9.46875 0,-5.8125 2.640625,-9.109375 2.640625,-3.296875 7.1875,-3.296875 4.578125,0 7.171875,3.4375 2.59375,3.453125 2.59375,9.453125 0,5.96875 -2.578125,9.1875 -2.5625,3.21875 -7,3.21875 z"
           id="SegoeUI-37" />
      </defs>
      <use
         xlink:href="#SegoeUI-8722"
         id="use45942"
         x="0"
         y="0"
         width="100%"
         height="100%" />
      <use
         x="68.408203"
         xlink:href="#SegoeUI-49"
         id="use45944"
         y="0"
         width="100%"
         height="100%" />
      <use
         x="122.31445"
         xlink:href="#SegoeUI-48"
         id="use45946"
         y="0"
         width="100%"
         height="100%" />
      <use
         x="176.2207"
         xlink:href="#SegoeUI-46"
         id="use45948"
         y="0"
         width="100%"
         height="100%" />
      <use
         x="197.90039"
         xlink:href="#SegoeUI-48"
         id="use45950"
         y="0"
         width="100%"
         height="100%" />
      <use
         x="251.80664"
         xlink:href="#SegoeUI-37"
         id="use45952"
         y="0"
         width="100%"
         height="100%" />
    </g>
  </g>
  <g
     id="text_13">
    <!-- 0.0% -->
    <g
       transform="matrix(0.1,0,0,-0.1,12.23125,81.149727)"
       id="g45974">
      <use
         xlink:href="#SegoeUI-48"
         id="use45966"
         x="0"
         y="0"
         width="100%"
         height="100%" />
      <use
         x="53.90625"
         xlink:href="#SegoeUI-46"
         id="use45968"
         y="0"
         width="100%"
         height="100%" />
      <use
         x="75.585938"
         xlink:href="#SegoeUI-48"
         id="use45970"
         y="0"
         width="100%"
         height="100%" />
      <use
         x="129.49219"
         xlink:href="#SegoeUI-37"
         id="use45972"
         y="0"
         width="100%"
         height="100%" />
    </g>
  </g>
  <g
     id="text_14">
    <!-- 10.0% -->
    <g
       transform="matrix(0.1,0,0,-0.1,6.840625,51.399394)"
       id="g45996">
      <use
         xlink:href="#SegoeUI-49"
         id="use45986"
         x="0"
         y="0"
         width="100%"
         height="100%" />
      <use
         x="53.90625"
         xlink:href="#SegoeUI-48"
         id="use45988"
         y="0"
         width="100%"
         height="100%" />
      <use
         x="107.8125"
         xlink:href="#SegoeUI-46"
         id="use45990"
         y="0"
         width="100%"
         height="100%" />
      <use
         x="129.49219"
         xlink:href="#SegoeUI-48"
         id="use45992"
         y="0"
         width="100%"
         height="100%" />
      <use
         x="183.39844"
         xlink:href="#SegoeUI-37"
         id="use45994"
         y="0"
         width="100%"
         height="100%" />
    </g>
  </g>
  <g
     id="text_15">
    <!-- 20.0% -->
    <g
       transform="matrix(0.1,0,0,-0.1,6.840625,21.64906)"
       id="g46021">
      <defs
         id="defs46009">
        <path
           d="m 37.703125,51.65625 q 0,3.234375 -1.015625,5.625 -1,2.390625 -2.734375,3.96875 -1.71875,1.59375 -4.0625,2.375 -2.34375,0.78125 -5.078125,0.78125 -2.34375,0 -4.59375,-0.640625 -2.25,-0.625 -4.375,-1.75 -2.125,-1.125 -4.109375,-2.6875 -1.96875,-1.5625 -3.671875,-3.46875 v 8.59375 q 3.359375,3.265625 7.53125,5 4.1875,1.734375 10.1875,1.734375 4.296875,0 7.953125,-1.25 3.671875,-1.234375 6.359375,-3.625 2.6875,-2.390625 4.21875,-5.90625 1.53125,-3.515625 1.53125,-8.0625 0,-4.15625 -0.953125,-7.53125 -0.9375,-3.359375 -2.875,-6.34375 Q 40.09375,35.5 37.15625,32.765625 q -2.921875,-2.734375 -6.875,-5.5625 -4.9375,-3.515625 -8.140625,-6.015625 -3.1875,-2.484375 -5.078125,-4.65625 -1.875,-2.171875 -2.640625,-4.34375 -0.75,-2.171875 -0.75,-5.015625 H 48.53125 V 0 H 5.328125 v 3.46875 q 0,4.484375 0.96875,7.90625 0.984375,3.421875 3.21875,6.5 2.25,3.078125 5.890625,6.140625 3.640625,3.078125 8.90625,6.9375 3.8125,2.734375 6.375,5.21875 2.5625,2.5 4.125,4.984375 1.5625,2.5 2.21875,5.0625 0.671875,2.5625 0.671875,5.4375 z"
           id="SegoeUI-50" />
      </defs>
      <use
         xlink:href="#SegoeUI-50"
         id="use46011"
         x="0"
         y="0"
         width="100%"
         height="100%" />
      <use
         x="53.90625"
         xlink:href="#SegoeUI-48"
         id="use46013"
         y="0"
         width="100%"
         height="100%" />
      <use
         x="107.8125"
         xlink:href="#SegoeUI-46"
         id="use46015"
         y="0"
         width="100%"
         height="100%" />
      <use
         x="129.49219"
         xlink:href="#SegoeUI-48"
         id="use46017"
         y="0"
         width="100%"
         height="100%" />
      <use
         x="183.39844"
         xlink:href="#SegoeUI-37"
         id="use46019"
         y="0"
         width="100%"
         height="100%" />
    </g>
  </g>
  <use
     x="1885.7461"
     xlink:href="#SegoeUI-34"
     id="use46414"
     y="0"
     width="100%"
     height="100%"
     transform="matrix(0.12,0,0,-0.12,-191.46267,10.236121)" />
  <path
     d="m 45.115683,7.8567464 q 0,0.568125 -0.21375,1.035 -0.21375,0.465 -0.60375,0.796875 -0.39,0.3299996 -0.93563,0.5118746 -0.54375,0.181875 -1.2,0.181875 -1.2,0 -1.91062,-0.4574996 v -1.03125 q 0.85125,0.669375 1.94625,0.669375 0.43875,0 0.79312,-0.110625 0.35438,-0.1125 0.60938,-0.3225 0.255,-0.211875 0.39187,-0.51 0.13875,-0.3 0.13875,-0.675 0,-1.64625 -2.34375,-1.64625 h -0.6975 v -0.81375 h 0.66188 q 2.07562,0 2.07562,-1.546875 0,-1.430625 -1.5825,-1.430625 -0.89062,0 -1.67062,0.598125 v -0.931875 q 0.8025,-0.48 1.91062,-0.48 0.52688,0 0.95438,0.14625 0.42937,0.14625 0.73312,0.410625 0.30563,0.2625 0.4725,0.631875 0.16688,0.369375 0.16688,0.81375 0,1.659375 -1.67625,2.13375 v 0.0225 q 0.4275,0.046875 0.79125,0.208125 0.36375,0.16125 0.62625,0.42 0.26437,0.256875 0.4125,0.605625 0.15,0.34875 0.15,0.770625 z"
     id="use46416"
     style="stroke-width:0.12" />
  <use
     x="1978.8613"
     xlink:href="#SegoeUI-48"
     id="use46418"
     y="0"
     width="100%"
     height="100%"
     transform="matrix(0.12,0,0,-0.12,-191.46267,10.236121)" />
  <path
     id="use46420"
     d=""
     style="stroke-width:0.12" />
  <path
     d="m 59.007793,7.2248714 q 0,1.494375 -0.63375,2.323125 -0.63188,0.8287496 -1.69125,0.8287496 -0.49313,0 -0.80813,-0.140625 V 9.2629964 q 0.315,0.22875 0.81938,0.22875 1.32938,0 1.32938,-2.255625 v -5.401875 h 0.98437 z"
     id="use46422"
     style="stroke-width:0.12" />
  <path
     d="m 65.141618,10.236121 h -0.96 V 9.2986214 h -0.0244 q -0.62624,1.0781246 -1.845,1.0781246 -0.89624,0 -1.40437,-0.4743746 -0.506265,-0.474375 -0.506265,-1.26 0,-1.681875 1.981895,-1.9575 l 1.79811,-0.25125 q 0,-1.53 -1.23561,-1.53 -1.08563,0 -1.9575,0.73875 v -0.984375 q 0.885,-0.5625 2.03811,-0.5625 2.115,0 2.115,2.23875 z m -0.96,-3.0356246 -1.4475,0.19875 q -0.6675,0.09375 -1.00874,0.331875 -0.33937,0.238125 -0.33937,0.84 0,0.440625 0.31311,0.72 0.315,0.2775 0.83626,0.2775 0.71437,0 1.17937,-0.500625 0.46687,-0.5025 0.46687,-1.269375 z"
     id="use46424"
     style="stroke-width:0.12" />
  <path
     d="m 71.933348,10.236121 h -0.96 V 6.8142464 q 0,-1.910625 -1.395,-1.910625 -0.72188,0 -1.19438,0.541875 -0.47062,0.541875 -0.47062,1.36875 v 3.4218746 h -0.96 V 4.2361214 h 0.96 v 0.995625 h 0.0244 q 0.67875,-1.13625 1.96875,-1.13625 0.98438,0 1.50562,0.635625 0.52126,0.635625 0.52126,1.8375 z"
     id="use46426"
     style="stroke-width:0.12" />
  <path
     d="m 78.594988,10.236121 h -0.96 V 9.2873714 h -0.0244 q -0.59625,1.0893746 -1.85062,1.0893746 -2.145,0 -2.145,-2.5556246 v -3.585 h 0.95437 v 3.433125 q 0,1.899375 1.45313,1.899375 0.70312,0 1.15687,-0.5175 0.45563,-0.519375 0.45563,-1.3575 v -3.4575 h 0.96 z"
     id="use46428"
     style="stroke-width:0.12" />
  <path
     d="m 84.829118,10.236121 h -0.96 V 9.2986214 h -0.0244 q -0.62624,1.0781246 -1.845,1.0781246 -0.89624,0 -1.40437,-0.4743746 -0.50626,-0.474375 -0.50626,-1.26 0,-1.681875 1.98189,-1.9575 l 1.79811,-0.25125 q 0,-1.53 -1.23561,-1.53 -1.08563,0 -1.9575,0.73875 v -0.984375 q 0.885,-0.5625 2.03811,-0.5625 2.115,0 2.115,2.23875 z m -0.96,-3.0356246 -1.4475,0.19875 q -0.6675,0.09375 -1.00874,0.331875 -0.33937,0.238125 -0.33937,0.84 0,0.440625 0.31311,0.72 0.315,0.2775 0.83626,0.2775 0.71437,0 1.17937,-0.500625 0.46687,-0.5025 0.46687,-1.269375 z"
     id="use46430"
     style="stroke-width:0.12" />
  <path
     d="m 89.770218,5.2092464 q -0.25313,-0.193125 -0.7275,-0.193125 -0.615,0 -1.02937,0.579375 -0.4125,0.579375 -0.4125,1.5825 v 3.0581246 h -0.96 V 4.2361214 h 0.96 v 1.235625 h 0.0244 q 0.20437,-0.631875 0.62625,-0.98625 0.42188,-0.354375 0.94312,-0.354375 0.375,0 0.57563,0.080625 z"
     id="use46432"
     style="stroke-width:0.12" />
  <use
     x="2348.1855"
     xlink:href="#SegoeUI-121"
     id="use46434"
     y="0"
     width="100%"
     height="100%"
     transform="matrix(0.12,0,0,-0.12,-191.46267,10.236121)" />
  <path
     id="use46436"
     d=""
     style="stroke-width:0.12" />
  <use
     x="2423.9668"
     xlink:href="#SegoeUI-50"
     id="use46438"
     y="0"
     width="100%"
     height="100%"
     transform="matrix(0.12,0,0,-0.12,-191.46267,10.236121)" />
  <use
     x="2477.873"
     xlink:href="#SegoeUI-48"
     id="use46440"
     y="0"
     width="100%"
     height="100%"
     transform="matrix(0.12,0,0,-0.12,-191.46267,10.236121)" />
  <use
     x="2531.7793"
     xlink:href="#SegoeUI-50"
     id="use46442"
     y="0"
     width="100%"
     height="100%"
     transform="matrix(0.12,0,0,-0.12,-191.46267,10.236121)" />
  <use
     x="2585.6855"
     xlink:href="#SegoeUI-49"
     id="use46444"
     y="0"
     width="100%"
     height="100%"
     transform="matrix(0.12,0,0,-0.12,-191.46267,10.236121)" />
  <path
     id="use46446"
     d=""
     style="stroke-width:0.12" />
  <path
     d="m 132.61795,7.2717464 h -3.19875 v -0.755625 h 3.19875 z"
     id="use46448"
     style="stroke-width:0.12" />
  <path
     id="use46450"
     d=""
     style="stroke-width:0.12" />
  <path
     d="m 142.24514,7.8567464 q 0,0.568125 -0.21375,1.035 -0.21375,0.465 -0.60375,0.796875 -0.39,0.3299996 -0.93562,0.5118746 -0.54375,0.181875 -1.2,0.181875 -1.2,0 -1.91063,-0.4574996 v -1.03125 q 0.85125,0.669375 1.94625,0.669375 0.43875,0 0.79313,-0.110625 0.35437,-0.1125 0.60937,-0.3225 0.255,-0.211875 0.39188,-0.51 0.13875,-0.3 0.13875,-0.675 0,-1.64625 -2.34375,-1.64625 h -0.6975 v -0.81375 h 0.66187 q 2.07563,0 2.07563,-1.546875 0,-1.430625 -1.5825,-1.430625 -0.89063,0 -1.67063,0.598125 v -0.931875 q 0.8025,-0.48 1.91063,-0.48 0.52687,0 0.95437,0.14625 0.42938,0.14625 0.73313,0.410625 0.30562,0.2625 0.4725,0.631875 0.16687,0.369375 0.16687,0.81375 0,1.659375 -1.67625,2.13375 v 0.0225 q 0.4275,0.046875 0.79125,0.208125 0.36375,0.16125 0.62625,0.42 0.26438,0.256875 0.4125,0.605625 0.15,0.34875 0.15,0.770625 z"
     id="use46452"
     style="stroke-width:0.12" />
  <use
     x="2788.2734"
     xlink:href="#SegoeUI-48"
     id="use46454"
     y="0"
     width="100%"
     height="100%"
     transform="matrix(0.12,0,0,-0.12,-191.46267,10.236121)" />
  <path
     id="use46456"
     d=""
     style="stroke-width:0.12" />
  <path
     d="m 160.491,10.236121 h -1.08937 L 158.511,7.8811214 h -3.5625 l -0.83812,2.3549996 h -1.095 l 3.22312,-8.4018746 h 1.01813 z m -2.3025,-3.2399996 -1.31812,-3.58125 q -0.0637,-0.174375 -0.12938,-0.5625 h -0.0225 q -0.0581,0.358125 -0.135,0.5625 l -1.30687,3.58125 z"
     id="use46458"
     style="stroke-width:0.12" />
  <use
     x="2934.0742"
     xlink:href="#SegoeUI-112"
     id="use46460"
     y="0"
     width="100%"
     height="100%"
     transform="matrix(0.12,0,0,-0.12,-191.46267,10.236121)" />
  <path
     d="m 171.78343,5.2092464 q -0.25313,-0.193125 -0.7275,-0.193125 -0.615,0 -1.02938,0.579375 -0.4125,0.579375 -0.4125,1.5825 v 3.0581246 h -0.96 V 4.2361214 h 0.96 v 1.235625 h 0.0244 q 0.20437,-0.631875 0.62624,-0.98625 0.42188,-0.354375 0.94313,-0.354375 0.375,0 0.57563,0.080625 z"
     id="use46462"
     style="stroke-width:0.12" />
  <path
     d="m 173.31717,2.7117464 q -0.25687,0 -0.43874,-0.174375 -0.18188,-0.17625 -0.18188,-0.44625 0,-0.27 0.18188,-0.448125 0.18187,-0.178125 0.43874,-0.178125 0.26438,0 0.44813,0.178125 0.18563,0.178125 0.18563,0.448125 0,0.25875 -0.18563,0.440625 -0.18375,0.18 -0.44813,0.18 z m 0.46876,7.5243746 h -0.96 V 4.2361214 h 0.96 z"
     id="use46464"
     style="stroke-width:0.12" />
  <path
     d="m 176.69217,10.236121 h -0.96 V 1.3523714 h 0.96 z"
     id="use46466"
     style="stroke-width:0.12" />
  <path
     id="use46468"
     d=""
     style="stroke-width:0.12" />
  <use
     x="3103.459"
     xlink:href="#SegoeUI-50"
     id="use46470"
     y="0"
     width="100%"
     height="100%"
     transform="matrix(0.12,0,0,-0.12,-191.46267,10.236121)" />
  <use
     x="3157.3652"
     xlink:href="#SegoeUI-48"
     id="use46472"
     y="0"
     width="100%"
     height="100%"
     transform="matrix(0.12,0,0,-0.12,-191.46267,10.236121)" />
  <use
     x="3211.2715"
     xlink:href="#SegoeUI-50"
     id="use46474"
     y="0"
     width="100%"
     height="100%"
     transform="matrix(0.12,0,0,-0.12,-191.46267,10.236121)" />
  <use
     x="3265.1777"
     xlink:href="#SegoeUI-49"
     id="use46476"
     y="0"
     width="100%"
     height="100%"
     transform="matrix(0.12,0,0,-0.12,-191.46267,10.236121)" />
  <use
     x="3319.084"
     xlink:href="#SegoeUI-34"
     id="use46478"
     y="0"
     width="100%"
     height="100%"
     transform="matrix(0.12,0,0,-0.12,-191.46267,10.236121)" />
</svg>
